<?xml version="1.0" encoding="UTF-8"?>
<svg xmlns="http://www.w3.org/2000/svg" xml:space="preserve" width="381mm" height="254mm" version="1.1" style="shape-rendering:geometricPrecision; text-rendering:geometricPrecision; image-rendering:optimizeQuality; fill-rule:evenodd; clip-rule:evenodd"
viewBox="0 0 38100 25400"
 xmlns:xlink="http://www.w3.org/1999/xlink">
 <defs>
  <style type="text/css">
   <![CDATA[
    .fil0 {fill:none}
    .fil1 {fill:#007EE5}
    .fil2 {fill:#0A2640}
   ]]>
  </style>
 </defs>
 <g id="Layer_x0020_1">
  <metadata id="CorelCorpID_0Corel-Layer"/>
  <polygon class="fil0" points="0,0 38100,0 38100,25400 0,25400 "/>
  <g id="_2422470732960">
   <path class="fil1" d="M5165 9871l7206 0c426,0 774,349 774,774l0 585 -168 0 -4015 0 1268 1450 0 -806 2747 0 168 0 0 2881c0,425 -348,774 -774,774l-7206 0c-426,0 -774,-349 -774,-774l0 -2881 168 0 4015 0 -1267 -1450 0 806 -2748 0 -168 0 0 -585c0,-425 348,-774 774,-774zm1098 4474l-145 -251c-165,285 -330,571 -495,857l290 0c117,-202 233,-404 350,-606zm108 188l-145 251 97 167 290 0 -242 -418zm-965 418l350 -606 -145 -251 -495 857 290 0zm4055 -242l2959 0 0 242 -2959 0 0 -242zm1157 -615l1802 0 0 241 -1802 0 0 -241z"/>
   <g>
    <path class="fil2" d="M14811 12158l380 0 0 -1233 510 1233 288 0 508 -1233 0 1233 380 0 0 -1895 -429 0 -603 1409 -602 -1409 -432 0 0 1895zm3540 -1898l-1100 0 0 1898 1100 0 0 -310 -720 0 0 -502 638 0 0 -301 -638 0 0 -475 720 0 0 -310zm1349 592c0,171 -95,282 -307,282l-318 0 0 -556 318 0c212,0 307,106 307,274zm-1005 -589l0 1895 380 0 0 -739 180 0 418 739 439 0 -453 -768c304,-82 432,-315 432,-546 0,-318 -228,-581 -684,-581l-712 0zm1648 945c0,567 415,966 961,966 421,0 763,-223 890,-613l-437 0c-89,184 -252,274 -456,274 -331,0 -567,-245 -567,-627 0,-386 236,-627 567,-627 204,0 367,89 456,271l437 0c-127,-388 -469,-613 -890,-613 -546,0 -961,401 -961,969zm3369 950l380 0 0 -1895 -380 0 0 779 -812 0 0 -779 -380 0 0 1895 380 0 0 -806 812 0 0 806zm2041 0l402 0 -682 -1898 -442 0 -681 1898 399 0 124 -361 755 0 125 361zm-228 -665l-548 0 274 -793 274 793zm2125 -1233l0 1303 -860 -1303 -380 0 0 1898 380 0 0 -1300 860 1300 380 0 0 -1898 -380 0zm655 310l504 0 0 1588 380 0 0 -1588 505 0 0 -307 -1389 0 0 307z"/>
    <path class="fil2" d="M16098 15142l401 0 -681 -1897 -442 0 -682 1897 399 0 125 -361 755 0 125 361zm-228 -665l-549 0 274 -792 275 792zm885 -1229l0 1894 1004 0 0 -301 -624 0 0 -1593 -380 0zm1145 306l505 0 0 1588 380 0 0 -1588 505 0 0 -306 -1390 0 0 306zm2766 -309l-1099 0 0 1897 1099 0 0 -309 -719 0 0 -502 638 0 0 -302 -638 0 0 -475 719 0 0 -309zm1349 592c0,171 -95,282 -307,282l-317 0 0 -556 317 0c212,0 307,105 307,274zm-1004 -589l0 1894 380 0 0 -738 179 0 418 738 440 0 -454 -768c304,-81 432,-315 432,-545 0,-318 -228,-581 -684,-581l-711 0zm2980 -3l0 1303 -860 -1303 -380 0 0 1897 380 0 0 -1300 860 1300 380 0 0 -1897 -380 0zm2042 1897l401 0 -681 -1897 -442 0 -682 1897 399 0 125 -361 755 0 125 361zm-228 -665l-549 0 274 -792 275 792zm784 -923l505 0 0 1588 380 0 0 -1588 505 0 0 -306 -1390 0 0 306zm1667 1588l380 0 0 -1894 -380 0 0 1894zm1533 -388l-521 -1506 -407 0 695 1894 461 0 695 -1894 -404 0 -519 1506zm2251 -1509l-1100 0 0 1897 1100 0 0 -309 -720 0 0 -502 638 0 0 -302 -638 0 0 -475 720 0 0 -309zm1669 1349c0,-668 -972,-456 -972,-836 0,-155 112,-228 261,-223 163,3 263,101 271,226l418 0c-24,-342 -290,-540 -678,-540 -391,0 -668,206 -668,548 -3,687 974,440 974,849 0,136 -105,231 -285,231 -176,0 -276,-100 -287,-252l-408 0c6,358 310,564 704,564 431,0 670,-268 670,-567z"/>
   </g>
  </g>
 </g>
</svg>
