<?xml version="1.0" encoding="UTF-8" ?>
<svg width="80" height="80pt" viewBox="0 0 1000 1000" version="1.1" xmlns="http://www.w3.org/2000/svg">
<g id="#cdb77cff">
<path fill="#cdb77c" opacity="1.00" d=" M 160.15 104.12 C 163.23 100.94 165.78 95.53 170.94 95.98 C 235.31 96.02 299.67 96.01 364.04 95.99 C 367.41 95.43 369.06 98.90 371.41 100.61 C 377.55 105.43 382.58 111.46 388.40 116.64 C 394.92 121.73 400.23 128.15 406.41 133.62 C 412.56 138.42 417.57 144.47 423.40 149.64 C 429.91 154.73 435.23 161.15 441.40 166.63 C 449.02 172.59 454.98 180.38 462.65 186.28 C 464.55 188.10 467.25 190.02 467.00 192.98 C 466.99 223.98 467.02 254.99 466.99 285.99 C 467.20 288.11 465.10 290.21 462.98 289.99 C 409.66 290.01 356.33 290.01 303.01 289.98 C 300.88 290.20 298.79 288.11 299.01 285.99 C 298.96 273.33 299.03 260.66 298.99 248.00 C 279.00 248.00 259.00 248.00 239.01 248.01 C 239.00 328.00 239.00 408.00 239.01 487.99 C 259.00 488.00 279.00 488.01 299.00 487.99 C 299.00 475.66 299.01 463.33 298.99 451.01 C 291.67 450.95 284.34 451.06 277.01 450.99 C 274.89 451.20 272.79 449.11 273.01 446.99 C 272.99 403.66 272.99 360.33 273.01 317.01 C 272.79 314.88 274.89 312.79 277.02 313.01 C 339.01 312.99 401.00 312.99 462.99 313.01 C 465.11 312.79 467.20 314.89 466.99 317.02 C 467.03 332.34 466.97 347.67 467.01 362.99 C 536.68 363.00 606.36 363.01 676.03 362.99 C 677.94 362.73 680.52 363.68 680.11 366.04 C 680.15 409.36 680.10 452.68 680.13 496.00 C 679.67 498.88 681.35 502.83 678.72 504.88 C 672.33 505.49 665.86 504.44 659.50 505.45 C 658.62 519.27 659.33 533.15 659.10 547.00 C 659.30 611.00 659.14 675.00 659.19 739.00 C 659.30 744.42 658.70 749.94 660.08 755.26 C 666.65 756.56 673.38 755.65 680.02 755.78 C 685.04 755.95 689.98 754.80 695.00 754.98 C 702.00 755.02 708.99 754.98 715.99 754.99 C 716.00 689.33 716.01 623.66 715.99 558.00 C 716.68 541.98 716.96 525.94 716.86 509.91 C 716.54 508.41 717.11 506.22 715.72 505.25 C 709.59 504.63 703.40 505.42 697.28 504.88 C 696.20 504.20 695.73 503.22 695.87 501.96 C 695.87 456.65 695.85 411.34 695.88 366.04 C 695.45 363.68 698.04 362.73 699.96 362.99 C 774.97 363.02 849.99 362.99 925.00 363.00 C 927.16 362.68 929.31 364.82 929.00 367.00 C 929.01 414.67 928.99 462.35 929.00 510.02 C 929.29 511.84 927.83 513.95 925.94 514.00 C 913.32 514.20 900.69 513.81 888.07 514.20 C 887.91 609.13 888.03 704.07 888.01 799.00 C 887.80 802.08 888.88 805.83 886.24 808.17 C 874.16 820.45 861.92 832.58 849.82 844.84 C 847.68 847.04 845.92 849.57 843.73 851.73 C 828.58 866.92 813.41 882.09 798.34 897.36 C 795.48 900.08 793.49 904.90 789.02 905.00 C 725.35 905.01 661.67 904.99 598.00 905.01 C 595.47 904.92 592.89 905.26 590.40 904.75 C 584.06 899.34 579.29 892.45 573.22 886.78 C 567.71 880.97 561.62 875.68 556.63 869.40 C 549.34 861.37 541.02 854.30 534.16 845.88 C 526.79 837.92 518.55 830.77 511.68 822.35 C 506.98 817.35 501.92 812.69 497.29 807.63 C 495.29 805.59 496.17 802.55 495.98 800.01 C 495.98 704.74 496.08 609.47 495.93 514.20 C 486.32 513.96 476.69 513.90 467.09 514.24 C 466.87 554.15 467.08 594.07 466.99 633.99 C 467.20 636.11 465.11 638.20 462.99 637.99 C 365.32 638.02 267.65 637.98 169.98 638.00 C 167.28 638.29 165.52 635.88 163.74 634.26 C 158.98 629.33 153.99 624.64 149.32 619.63 C 144.90 614.09 139.60 609.38 134.70 604.30 C 119.76 589.22 104.69 574.28 89.79 559.16 C 84.31 552.35 77.67 546.61 71.72 540.24 C 70.62 539.16 71.16 537.41 70.97 536.06 C 71.03 423.35 70.99 310.64 71.00 197.94 C 70.68 195.76 72.37 194.17 73.73 192.74 C 78.72 187.72 83.72 182.71 88.69 177.68 C 101.61 162.66 116.87 149.82 129.77 134.79 C 139.89 124.56 150.13 114.45 160.15 104.12 M 171.28 104.21 C 168.83 106.09 166.88 108.53 164.70 110.70 C 136.60 139.59 108.54 168.51 80.42 197.37 C 79.41 198.30 78.82 199.54 79.00 200.94 C 79.00 311.97 79.01 423.01 78.99 534.05 C 78.99 535.40 79.08 536.88 80.27 537.76 C 103.76 561.59 127.21 585.47 150.68 609.31 C 157.58 616.09 164.05 623.37 171.22 629.85 C 214.13 630.20 257.07 629.90 300.00 630.00 C 352.99 629.99 405.99 630.03 458.98 629.98 C 459.01 526.99 459.01 424.01 458.98 321.02 C 399.66 320.99 340.34 320.99 281.02 321.02 C 280.99 361.67 280.99 402.33 281.02 442.98 C 288.63 443.18 296.27 442.70 303.86 443.18 C 306.70 443.43 307.15 446.65 307.02 448.93 C 306.93 463.28 307.12 477.65 306.93 492.00 C 307.13 494.67 304.48 496.29 302.06 495.99 C 279.71 495.97 257.35 496.09 235.00 495.93 C 232.34 496.13 230.70 493.48 231.01 491.07 C 230.99 409.03 230.99 326.98 231.01 244.94 C 230.70 242.51 232.32 239.87 235.00 240.07 C 256.34 239.88 277.69 240.09 299.03 239.97 C 300.90 240.01 302.82 239.87 304.65 240.36 C 306.54 241.01 307.04 243.15 306.99 244.94 C 307.06 257.28 306.94 269.63 307.02 281.98 C 357.67 282.01 408.33 282.01 458.98 281.98 C 459.02 253.31 459.00 224.64 458.99 195.97 C 459.35 193.99 457.61 192.82 456.42 191.59 C 425.41 162.58 394.72 133.21 363.64 104.29 C 358.47 103.58 353.20 104.18 348.00 104.00 C 292.67 104.01 237.33 104.01 182.00 104.03 C 178.43 104.08 174.84 103.76 171.28 104.21 M 466.02 370.02 C 465.99 415.75 465.97 461.47 466.03 507.20 C 476.70 507.38 487.37 507.21 498.04 507.26 C 499.76 507.27 502.06 507.32 502.74 509.30 C 503.36 512.49 503.01 515.77 503.09 519.00 C 503.06 613.02 503.09 707.03 503.07 801.05 C 502.91 802.68 503.46 804.21 504.75 805.27 C 534.37 836.00 563.69 867.03 593.38 897.69 C 601.20 898.46 609.13 897.76 617.00 898.00 C 673.66 897.96 730.33 898.01 786.99 897.89 C 791.41 896.34 793.89 891.44 797.48 888.49 C 824.89 860.57 852.25 832.61 879.67 804.70 C 880.81 803.82 880.91 802.37 880.92 801.05 C 880.91 704.68 880.89 608.32 880.93 511.95 C 880.70 509.87 881.71 507.22 884.19 507.36 C 896.78 507.07 909.38 507.45 921.97 507.20 C 922.03 461.48 922.01 415.75 921.98 370.02 C 848.86 369.98 775.74 370.01 702.62 370.01 C 702.45 412.73 702.44 455.47 702.63 498.19 C 709.22 498.50 715.85 497.82 722.43 498.62 C 722.97 500.01 723.59 501.42 723.54 502.96 C 723.41 584.97 723.23 666.99 723.08 749.00 C 723.01 753.15 723.41 757.36 722.42 761.44 C 720.33 762.02 718.18 762.36 716.02 762.30 C 696.02 762.33 676.02 762.72 656.03 762.70 C 653.42 762.96 652.07 760.30 652.41 758.04 C 652.42 673.01 652.42 587.98 652.41 502.96 C 652.24 501.06 652.93 498.57 655.19 498.40 C 661.23 497.97 667.30 498.46 673.35 498.19 C 673.53 455.47 673.52 412.73 673.36 370.01 C 604.25 370.00 535.13 369.98 466.02 370.02 Z" />
<path fill="#cdb77c" opacity="1.00" d=" M 185.46 143.53 C 186.83 142.82 188.44 143.08 189.93 142.97 C 237.62 143.04 285.31 143.00 333.00 143.01 C 336.60 143.07 340.23 142.74 343.82 143.24 C 346.24 144.28 347.98 146.39 349.91 148.12 C 370.51 166.83 391.01 185.65 411.59 204.38 C 414.82 207.42 419.56 210.21 419.49 215.22 C 419.79 221.80 419.50 228.40 419.62 235.00 C 419.55 238.53 419.91 242.20 418.71 245.60 C 417.36 248.49 413.72 248.41 411.01 248.59 C 392.34 248.62 373.66 248.62 354.99 248.59 C 352.27 248.41 348.64 248.49 347.29 245.60 C 345.52 240.25 346.99 234.51 346.11 229.04 C 345.45 225.57 342.89 222.94 340.64 220.40 C 335.22 214.81 330.36 208.69 324.64 203.39 C 322.91 201.61 320.32 201.58 318.01 201.59 C 288.34 201.63 258.67 201.60 229.00 201.60 C 225.68 201.66 222.33 201.36 219.04 201.88 C 216.22 202.83 214.41 205.36 212.23 207.23 C 206.04 212.69 200.17 218.51 194.29 224.31 C 192.41 225.99 191.40 228.43 191.61 230.96 C 191.61 321.65 191.61 412.35 191.61 503.04 C 191.40 505.57 192.43 508.00 194.30 509.70 C 201.30 516.70 208.30 523.70 215.31 530.70 C 217.00 532.56 219.43 533.59 221.97 533.39 C 261.99 533.37 302.01 533.44 342.03 533.36 C 344.69 533.68 346.68 531.68 346.36 529.03 C 346.45 489.67 346.36 450.31 346.40 410.95 C 346.32 409.05 346.35 406.13 343.87 405.88 C 337.33 404.95 330.60 406.45 324.12 404.96 C 320.65 404.07 320.52 399.92 320.41 397.01 C 320.37 387.34 320.37 377.66 320.41 367.99 C 320.59 365.28 320.51 361.65 323.40 360.29 C 325.80 359.38 328.41 359.42 330.95 359.37 C 355.96 359.40 380.98 359.40 406.00 359.38 C 409.29 359.42 412.66 359.17 415.88 360.04 C 417.65 360.46 418.90 362.10 419.15 363.86 C 419.87 367.53 419.56 371.29 419.61 375.01 C 419.60 444.35 419.60 513.70 419.61 583.05 C 419.49 585.46 419.59 588.10 418.33 590.26 C 416.42 592.77 412.85 592.41 410.05 592.61 C 337.68 592.60 265.31 592.60 192.95 592.61 C 190.33 592.48 187.31 592.67 185.22 590.78 C 177.87 584.13 171.70 576.32 164.63 569.39 C 155.73 560.60 147.62 551.07 138.68 542.33 C 132.82 536.19 127.18 529.85 121.19 523.83 C 118.44 521.36 118.47 517.46 118.39 514.06 C 118.39 415.69 118.39 317.31 118.39 218.94 C 118.49 215.54 118.42 211.62 121.18 209.16 C 128.50 201.49 136.23 194.21 143.24 186.24 C 153.46 175.80 163.82 165.49 173.99 155.00 C 177.75 151.12 180.98 146.62 185.46 143.53 Z" />
<path fill="#cdb77c" opacity="1.00" d=" M 502.91 410.92 C 504.44 409.24 506.89 409.51 508.94 409.38 C 547.98 409.40 587.02 409.40 626.07 409.38 C 628.13 409.51 630.56 409.28 632.19 410.82 C 633.93 412.33 633.63 414.87 633.76 416.94 C 633.71 431.97 633.78 447.01 633.73 462.04 C 633.85 464.22 633.09 467.02 630.56 467.40 C 624.53 468.31 618.33 466.84 612.36 468.36 C 612.08 469.87 611.76 471.39 611.72 472.95 C 611.72 569.96 611.73 666.98 611.72 764.00 C 611.75 767.34 611.57 770.70 611.83 774.05 C 611.92 776.68 614.08 778.46 615.75 780.24 C 621.80 786.19 627.78 792.23 633.78 798.24 C 635.41 799.91 637.45 801.44 639.94 801.29 C 671.30 801.39 702.66 801.26 734.02 801.34 C 736.56 801.40 739.37 801.18 741.22 799.19 C 747.06 793.71 752.43 787.74 758.64 782.65 C 761.90 779.40 766.84 776.33 766.27 771.05 C 766.26 671.68 766.27 572.31 766.27 472.94 C 766.21 471.39 765.90 469.87 765.64 468.36 C 758.67 466.76 751.46 468.37 744.43 467.40 C 741.90 467.03 741.13 464.22 741.26 462.04 C 741.21 447.01 741.27 431.97 741.23 416.94 C 741.35 414.87 741.04 412.32 742.80 410.81 C 744.44 409.28 746.86 409.51 748.94 409.38 C 788.96 409.40 828.98 409.40 868.99 409.38 C 872.09 409.43 875.26 409.14 878.33 409.80 C 880.94 410.60 881.71 413.53 881.59 415.97 C 881.62 430.99 881.62 446.01 881.59 461.03 C 881.77 463.70 880.70 467.11 877.60 467.43 C 871.42 468.01 865.19 467.52 859.00 467.68 C 852.79 467.95 846.48 466.99 840.37 468.37 C 840.01 469.87 839.61 471.39 839.60 472.95 C 839.61 577.31 839.62 681.67 839.60 786.02 C 839.90 789.43 838.10 792.44 835.71 794.69 C 820.57 809.89 805.42 825.07 790.30 840.28 C 786.27 844.27 782.25 848.26 778.63 852.62 C 775.58 855.99 772.07 860.10 767.02 859.60 C 715.00 859.61 662.99 859.62 610.97 859.59 C 608.08 859.86 605.54 858.39 603.69 856.29 C 591.28 843.71 578.72 831.26 566.34 818.66 C 559.29 810.40 551.31 803.01 543.74 795.26 C 541.13 792.87 539.04 789.71 539.40 786.02 C 539.38 684.35 539.40 582.67 539.39 481.00 C 539.30 476.78 539.85 472.47 538.64 468.37 C 529.86 466.87 520.86 468.03 511.99 467.70 C 508.81 467.43 504.63 468.53 502.40 465.60 C 501.16 463.67 501.50 461.23 501.37 459.05 C 501.42 445.02 501.38 430.98 501.38 416.94 C 501.51 414.89 501.25 412.44 502.91 410.92 Z" />
</g>
<g id="#000000ff">
<path fill="#000000" opacity="1.00" d=" M 171.28 104.21 C 174.84 103.76 178.43 104.08 182.00 104.03 C 237.33 104.01 292.67 104.01 348.00 104.00 C 353.20 104.18 358.47 103.58 363.64 104.29 C 394.72 133.21 425.41 162.58 456.42 191.59 C 457.61 192.82 459.35 193.99 458.99 195.97 C 459.00 224.64 459.02 253.31 458.98 281.98 C 408.33 282.01 357.67 282.01 307.02 281.98 C 306.94 269.63 307.06 257.28 306.99 244.94 C 307.04 243.15 306.54 241.01 304.65 240.36 C 302.82 239.87 300.90 240.01 299.03 239.97 C 277.69 240.09 256.34 239.88 235.00 240.07 C 232.32 239.87 230.70 242.51 231.01 244.94 C 230.99 326.98 230.99 409.03 231.01 491.07 C 230.70 493.48 232.34 496.13 235.00 495.93 C 257.35 496.09 279.71 495.97 302.06 495.99 C 304.48 496.29 307.13 494.67 306.93 492.00 C 307.12 477.65 306.93 463.28 307.02 448.93 C 307.15 446.65 306.70 443.43 303.86 443.18 C 296.27 442.70 288.63 443.18 281.02 442.98 C 280.99 402.33 280.99 361.67 281.02 321.02 C 340.34 320.99 399.66 320.99 458.98 321.02 C 459.01 424.01 459.01 526.99 458.98 629.98 C 405.99 630.03 352.99 629.99 300.00 630.00 C 257.07 629.90 214.13 630.20 171.22 629.85 C 164.05 623.37 157.58 616.09 150.68 609.31 C 127.21 585.47 103.76 561.59 80.27 537.76 C 79.08 536.88 78.99 535.40 78.99 534.05 C 79.01 423.01 79.00 311.97 79.00 200.94 C 78.82 199.54 79.41 198.30 80.42 197.37 C 108.54 168.51 136.60 139.59 164.70 110.70 C 166.88 108.53 168.83 106.09 171.28 104.21 M 185.46 143.53 C 180.98 146.62 177.75 151.12 173.99 155.00 C 163.82 165.49 153.46 175.80 143.24 186.24 C 136.23 194.21 128.50 201.49 121.18 209.16 C 118.42 211.62 118.49 215.54 118.39 218.94 C 118.39 317.31 118.39 415.69 118.39 514.06 C 118.47 517.46 118.44 521.36 121.19 523.83 C 127.18 529.85 132.82 536.19 138.68 542.33 C 147.62 551.07 155.73 560.60 164.63 569.39 C 171.70 576.32 177.87 584.13 185.22 590.78 C 187.31 592.67 190.33 592.48 192.95 592.61 C 265.31 592.60 337.68 592.60 410.05 592.61 C 412.85 592.41 416.42 592.77 418.33 590.26 C 419.59 588.10 419.49 585.46 419.61 583.05 C 419.60 513.70 419.60 444.35 419.61 375.01 C 419.56 371.29 419.87 367.53 419.15 363.86 C 418.90 362.10 417.65 360.46 415.88 360.04 C 412.66 359.17 409.29 359.42 406.00 359.38 C 380.98 359.40 355.96 359.40 330.95 359.37 C 328.41 359.42 325.80 359.38 323.40 360.29 C 320.51 361.65 320.59 365.28 320.41 367.99 C 320.37 377.66 320.37 387.34 320.41 397.01 C 320.52 399.92 320.65 404.07 324.12 404.96 C 330.60 406.45 337.33 404.95 343.87 405.88 C 346.35 406.13 346.32 409.05 346.40 410.95 C 346.36 450.31 346.45 489.67 346.36 529.03 C 346.68 531.68 344.69 533.68 342.03 533.36 C 302.01 533.44 261.99 533.37 221.97 533.39 C 219.43 533.59 217.00 532.56 215.31 530.70 C 208.30 523.70 201.30 516.70 194.30 509.70 C 192.43 508.00 191.40 505.57 191.61 503.04 C 191.61 412.35 191.61 321.65 191.61 230.96 C 191.40 228.43 192.41 225.99 194.29 224.31 C 200.17 218.51 206.04 212.69 212.23 207.23 C 214.41 205.36 216.22 202.83 219.04 201.88 C 222.33 201.36 225.68 201.66 229.00 201.60 C 258.67 201.60 288.34 201.63 318.01 201.59 C 320.32 201.58 322.91 201.61 324.64 203.39 C 330.36 208.69 335.22 214.81 340.64 220.40 C 342.89 222.94 345.45 225.57 346.11 229.04 C 346.99 234.51 345.52 240.25 347.29 245.60 C 348.64 248.49 352.27 248.41 354.99 248.59 C 373.66 248.62 392.34 248.62 411.01 248.59 C 413.72 248.41 417.36 248.49 418.71 245.60 C 419.91 242.20 419.55 238.53 419.62 235.00 C 419.50 228.40 419.79 221.80 419.49 215.22 C 419.56 210.21 414.82 207.42 411.59 204.38 C 391.01 185.65 370.51 166.83 349.91 148.12 C 347.98 146.39 346.24 144.28 343.82 143.24 C 340.23 142.74 336.60 143.07 333.00 143.01 C 285.31 143.00 237.62 143.04 189.93 142.97 C 188.44 143.08 186.83 142.82 185.46 143.53 Z" />
<path fill="#000000" opacity="1.00" d=" M 466.02 370.02 C 535.13 369.98 604.25 370.00 673.36 370.01 C 673.52 412.73 673.53 455.47 673.35 498.19 C 667.30 498.46 661.23 497.97 655.19 498.40 C 652.93 498.57 652.24 501.06 652.41 502.96 C 652.42 587.98 652.42 673.01 652.41 758.04 C 652.07 760.30 653.42 762.96 656.03 762.70 C 676.02 762.72 696.02 762.33 716.02 762.30 C 718.18 762.36 720.33 762.02 722.42 761.44 C 723.41 757.36 723.01 753.15 723.08 749.00 C 723.23 666.99 723.41 584.97 723.54 502.96 C 723.59 501.42 722.97 500.01 722.43 498.62 C 715.85 497.82 709.22 498.50 702.63 498.19 C 702.44 455.47 702.45 412.73 702.62 370.01 C 775.74 370.01 848.86 369.98 921.98 370.02 C 922.01 415.75 922.03 461.48 921.97 507.20 C 909.38 507.45 896.78 507.07 884.19 507.36 C 881.71 507.22 880.70 509.87 880.93 511.95 C 880.89 608.32 880.91 704.68 880.92 801.05 C 880.91 802.37 880.81 803.82 879.67 804.70 C 852.25 832.61 824.89 860.57 797.48 888.49 C 793.89 891.44 791.41 896.34 786.99 897.89 C 730.33 898.01 673.66 897.96 617.00 898.00 C 609.13 897.76 601.20 898.46 593.38 897.69 C 563.69 867.03 534.37 836.00 504.75 805.27 C 503.46 804.21 502.91 802.68 503.07 801.05 C 503.09 707.03 503.06 613.02 503.09 519.00 C 503.01 515.77 503.36 512.49 502.74 509.30 C 502.06 507.32 499.76 507.27 498.04 507.26 C 487.37 507.21 476.70 507.38 466.03 507.20 C 465.97 461.47 465.99 415.75 466.02 370.02 M 502.91 410.92 C 501.25 412.44 501.51 414.89 501.38 416.94 C 501.38 430.98 501.42 445.02 501.37 459.05 C 501.50 461.23 501.16 463.67 502.40 465.60 C 504.63 468.53 508.81 467.43 511.99 467.70 C 520.86 468.03 529.86 466.87 538.64 468.37 C 539.85 472.47 539.30 476.78 539.39 481.00 C 539.40 582.67 539.38 684.35 539.40 786.02 C 539.04 789.71 541.13 792.87 543.74 795.26 C 551.31 803.01 559.29 810.40 566.34 818.66 C 578.72 831.26 591.28 843.71 603.69 856.29 C 605.54 858.39 608.08 859.86 610.97 859.59 C 662.99 859.62 715.00 859.61 767.02 859.60 C 772.07 860.10 775.58 855.99 778.63 852.62 C 782.25 848.26 786.27 844.27 790.30 840.28 C 805.42 825.07 820.57 809.89 835.71 794.69 C 838.10 792.44 839.90 789.43 839.60 786.02 C 839.62 681.67 839.61 577.31 839.60 472.95 C 839.61 471.39 840.01 469.87 840.37 468.37 C 846.48 466.99 852.79 467.95 859.00 467.68 C 865.19 467.52 871.42 468.01 877.60 467.43 C 880.70 467.11 881.77 463.70 881.59 461.03 C 881.62 446.01 881.62 430.99 881.59 415.97 C 881.71 413.53 880.94 410.60 878.33 409.80 C 875.26 409.14 872.09 409.43 868.99 409.38 C 828.98 409.40 788.96 409.40 748.94 409.38 C 746.86 409.51 744.44 409.28 742.80 410.81 C 741.04 412.32 741.35 414.87 741.23 416.94 C 741.27 431.97 741.21 447.01 741.26 462.04 C 741.13 464.22 741.90 467.03 744.43 467.40 C 751.46 468.37 758.67 466.76 765.64 468.36 C 765.90 469.87 766.21 471.39 766.27 472.94 C 766.27 572.31 766.26 671.68 766.27 771.05 C 766.84 776.33 761.90 779.40 758.64 782.65 C 752.43 787.74 747.06 793.71 741.22 799.19 C 739.37 801.18 736.56 801.40 734.02 801.34 C 702.66 801.26 671.30 801.39 639.94 801.29 C 637.45 801.44 635.41 799.91 633.78 798.24 C 627.78 792.23 621.80 786.19 615.75 780.24 C 614.08 778.46 611.92 776.68 611.83 774.05 C 611.57 770.70 611.75 767.34 611.72 764.00 C 611.73 666.98 611.72 569.96 611.72 472.95 C 611.76 471.39 612.08 469.87 612.36 468.36 C 618.33 466.84 624.53 468.31 630.56 467.40 C 633.09 467.02 633.85 464.22 633.73 462.04 C 633.78 447.01 633.71 431.97 633.76 416.94 C 633.63 414.87 633.93 412.33 632.19 410.82 C 630.56 409.28 628.13 409.51 626.07 409.38 C 587.02 409.40 547.98 409.40 508.94 409.38 C 506.89 409.51 504.44 409.24 502.91 410.92 Z" />
</g>
</svg>
