<?xml version="1.0" encoding="utf-8"?>
<!-- Generator: Adobe Illustrator 24.1.0, SVG Export Plug-In . SVG Version: 6.00 Build 0)  -->
<svg version="1.1" id="Layer_1" xmlns="http://www.w3.org/2000/svg" xmlns:xlink="http://www.w3.org/1999/xlink" x="0px" y="0px"
	 viewBox="0 0 259 103.8" style="enable-background:new 0 0 259 103.8;" xml:space="preserve">
<style type="text/css">
	.Round_x0020_Corners_x0020_2_x0020_pt{fill:#FFFFFF;stroke:#000000;stroke-miterlimit:10;}
	.Live_x0020_Reflect_x0020_X{fill:none;}
	.Bevel_x0020_Soft{fill:url(#SVGID_1_);}
	.Dusk{fill:#FFFFFF;}
	.Foliage_GS{fill:#FFDD00;}
	.Pompadour_GS{fill-rule:evenodd;clip-rule:evenodd;fill:#44ADE2;}
	.st0{fill:#FFFFFF;}
</style>
<linearGradient id="SVGID_1_" gradientUnits="userSpaceOnUse" x1="-8.77" y1="-85.3687" x2="-8.0629" y2="-84.6616">
	<stop  offset="0" style="stop-color:#DEDFE3"/>
	<stop  offset="0.1738" style="stop-color:#D8D9DD"/>
	<stop  offset="0.352" style="stop-color:#C9CACD"/>
	<stop  offset="0.5323" style="stop-color:#B4B5B8"/>
	<stop  offset="0.7139" style="stop-color:#989A9C"/>
	<stop  offset="0.8949" style="stop-color:#797C7E"/>
	<stop  offset="1" style="stop-color:#656B6C"/>
</linearGradient>
<g>
	<g>
		<path class="st0" d="M33.5,22.9C1.1,22.9-0.2,48.1,0,54.7c0,0-1.6,29.5,32.7,29.5c29.4,0,30.9-18.5,30.9-18.5l-13.5,0
			c0,0-2.6,10.2-17.3,9.9C13.9,75.2,13.2,57,13.2,57h52.2C65.4,57,69.3,22.9,33.5,22.9z M13.6,48c0,0,0.9-16.5,19.6-16.5
			C51.7,31.5,51.7,48,51.7,48H13.6z"/>
	</g>
</g>
<g>
	<g>
		<path class="st0" d="M101.6,22.9c-16.3-0.1-23.3,9.6-23.3,9.6V0H65.3l0.2,68.8c0,0-0.1,8-0.6,13.3h12.7l0.5-7.7
			c0,0,5.9,9.7,23.2,9.7c17.3,0,30.9-10.6,31.3-30.4C133,34,117.9,23,101.6,22.9z M98.6,75.3C78,75.6,78.4,53.5,78.4,53.5
			s-0.7-21.2,20.2-21.8c20.9-0.5,20.3,22.2,20.3,22.2S119.2,75.1,98.6,75.3z"/>
	</g>
</g>
<g>
	<g>
		<path class="st0" d="M192.9,68.5c0-8.9,0.3-16.9,0-22.5c-0.3-6.5,0.3-22.2-27.8-23.4c0,0-26.9-2.5-29.7,17.6h13.8
			c0,0,1.1-9.2,15.1-8.9c13.2,0.2,15.6,6.7,15.6,14.7c0,0-11.3,0-15.1,0.1c-6.8,0-30.7,0.8-32.9,15.3c-2.7,17.3,12.8,22.7,24.9,22.6
			c12.1-0.1,19-3.7,24.1-10.2l0.5,8l12-0.1C193.2,82,192.9,77.5,192.9,68.5z M158.8,75.8c0,0-13.1,0-13.8-10.4
			c-0.8-11.2,20.1-10.5,20.1-10.5l14.8,0C179.9,54.9,182.3,76.1,158.8,75.8z"/>
	</g>
</g>
<polygon class="st0" points="185.8,25.1 200.9,25.1 223.1,69.3 245.3,25.1 259,25.1 218.9,103.8 204.2,103.8 215.8,82 "/>
</svg>
