<svg width="125pt" viewBox="0 0 2000 333" version="1.1" xmlns="http://www.w3.org/2000/svg">
<path fill="#000000" d=" M 142.33 0.00 L 235.21 0.00 C 173.68 71.86 112.23 143.80 50.76 215.72 C 69.96 205.14 89.12 194.49 108.33 183.93 C 150.63 233.60 192.87 283.32 235.18 333.00 L 142.32 333.00 C 94.83 277.56 47.43 222.05 0.00 166.56 L 0.00 166.45 C 47.43 110.96 94.83 55.44 142.33 0.00 Z" />
<path fill="#000000" d=" M 1764.83 0.00 L 1857.69 0.00 C 1905.17 55.45 1952.58 110.95 2000.00 166.45 L 2000.00 166.55 C 1952.57 222.04 1905.17 277.56 1857.68 333.00 L 1764.79 333.00 C 1826.32 261.14 1887.76 189.20 1949.22 117.28 C 1930.02 127.85 1910.87 138.53 1891.66 149.07 C 1849.38 99.38 1807.12 49.67 1764.83 0.00 Z" />
<path fill="#000000" d=" M 491.97 43.02 C 534.82 39.33 580.23 46.40 616.18 71.27 C 605.91 83.29 595.66 95.32 585.36 107.31 C 557.60 92.37 524.99 87.24 493.85 91.39 C 483.63 93.04 472.72 95.65 465.10 103.14 C 459.43 108.60 458.18 117.60 461.26 124.70 C 463.54 129.73 468.62 132.68 473.59 134.52 C 483.31 138.06 493.64 139.36 503.85 140.67 C 527.08 143.17 550.59 144.63 573.26 150.70 C 588.97 154.93 605.14 161.35 615.88 174.12 C 625.69 185.67 628.81 201.27 628.94 216.05 C 629.33 231.57 625.67 247.63 616.23 260.20 C 606.45 273.47 591.53 281.96 576.09 287.01 C 557.07 293.19 536.94 295.10 517.03 295.31 C 490.03 295.54 462.77 292.36 437.14 283.59 C 421.16 278.17 405.95 270.56 391.96 261.15 C 402.65 248.61 413.34 236.08 424.08 223.58 C 458.80 243.71 500.39 251.51 540.06 245.50 C 549.46 243.79 559.40 241.29 566.49 234.49 C 572.43 228.94 573.83 219.66 570.83 212.29 C 568.67 207.23 563.65 204.20 558.70 202.34 C 549.21 198.79 539.08 197.48 529.08 196.17 C 506.19 193.63 483.03 192.28 460.63 186.52 C 444.09 182.26 426.93 175.75 415.75 162.20 C 404.52 148.57 402.28 129.95 403.22 112.89 C 404.21 95.08 412.67 77.81 426.51 66.48 C 444.77 51.28 468.76 45.21 491.97 43.02 Z" />
<path fill="#000000" d=" M 734.83 46.45 C 807.80 46.41 880.77 46.44 953.74 46.44 C 953.76 62.52 953.75 78.60 953.75 94.68 C 899.32 94.70 844.89 94.68 790.46 94.69 C 790.41 111.08 790.45 127.47 790.44 143.86 C 837.16 143.89 883.89 143.86 930.61 143.88 C 930.65 159.94 930.60 176.00 930.64 192.06 C 883.91 192.23 837.17 192.06 790.44 192.14 C 790.44 209.00 790.43 225.87 790.44 242.74 C 844.88 242.77 899.31 242.73 953.75 242.76 C 953.76 258.84 953.75 274.91 953.75 290.99 C 880.80 291.01 807.84 291.01 734.88 290.99 C 734.84 209.48 734.93 127.97 734.83 46.45 Z" />
<path fill="#000000" d=" M 1062.14 46.44 C 1110.76 46.44 1159.38 46.42 1208.00 46.45 C 1225.99 46.65 1244.54 49.54 1260.28 58.73 C 1271.96 65.45 1281.27 76.10 1286.38 88.57 C 1292.03 102.10 1293.36 117.07 1292.49 131.59 C 1291.57 146.10 1287.56 160.82 1278.70 172.56 C 1267.85 187.07 1250.51 195.71 1232.83 198.35 C 1219.72 200.47 1206.41 201.12 1193.15 201.19 C 1213.29 206.41 1233.43 211.70 1253.80 216.01 C 1270.73 240.98 1287.60 265.99 1304.50 290.99 C 1282.66 291.01 1260.81 290.99 1238.97 291.00 C 1218.89 261.07 1198.90 231.07 1178.83 201.12 C 1158.45 201.14 1138.07 201.11 1117.69 201.14 C 1117.68 231.09 1117.69 261.04 1117.69 290.99 C 1099.17 291.01 1080.64 291.00 1062.12 290.99 C 1062.13 209.47 1062.10 127.95 1062.14 46.44 M 1117.70 94.70 C 1117.68 114.09 1117.69 133.48 1117.70 152.87 C 1144.46 152.89 1171.23 152.87 1197.99 152.88 C 1207.74 152.89 1218.28 152.22 1226.49 146.38 C 1232.68 142.01 1235.56 134.39 1235.98 127.05 C 1236.58 118.44 1235.07 108.71 1228.31 102.67 C 1221.20 96.32 1211.19 94.96 1202.01 94.72 C 1173.91 94.66 1145.80 94.69 1117.70 94.70 Z" />
<path fill="#000000" d=" M 1400.07 46.43 C 1444.37 46.44 1488.67 46.44 1532.96 46.43 C 1551.82 46.19 1571.25 48.28 1588.39 56.66 C 1600.90 62.70 1611.59 72.64 1617.97 85.03 C 1626.40 101.23 1628.12 120.09 1626.61 138.05 C 1625.17 154.64 1619.32 171.37 1607.56 183.50 C 1595.40 196.27 1578.23 203.01 1561.09 205.74 C 1547.17 208.15 1533.01 207.47 1518.96 207.56 C 1497.85 207.57 1476.74 207.55 1455.64 207.57 C 1455.61 235.38 1455.63 263.18 1455.63 290.99 C 1437.11 291.01 1418.58 291.00 1400.06 290.99 C 1400.07 209.47 1400.04 127.95 1400.07 46.43 M 1455.64 94.70 C 1455.62 116.23 1455.62 137.77 1455.64 159.30 C 1481.42 159.30 1507.21 159.34 1532.99 159.28 C 1542.77 158.96 1553.35 157.55 1561.08 151.01 C 1567.74 145.40 1570.05 136.34 1570.11 127.95 C 1570.31 119.19 1568.39 109.57 1561.60 103.47 C 1553.58 96.31 1542.26 94.96 1531.93 94.71 C 1506.50 94.66 1481.07 94.69 1455.64 94.70 Z" />
</svg>
