<svg width="391" height="289" viewBox="0 0 391 289" xmlns="http://www.w3.org/2000/svg" xmlns:xlink="http://www.w3.org/1999/xlink">
    <g id="Layerx00201">
        <path id="Path" fill="none" stroke="none" d="M -145 -329 L 1295 -329 L 1295 631 L -145 631 Z"/>
        <g id="2422470732960">
            <path id="path1" fill="#007ee5" fill-rule="evenodd" stroke="none" d="M 50.212601 44.077148 L 322.565369 44.077148 C 338.666138 44.077148 351.818909 57.2677 351.818909 73.330688 L 351.818909 95.440918 L 345.469299 95.440918 L 193.721252 95.440918 L 241.64566 150.24408 L 241.64566 119.781097 L 345.469299 119.781097 L 351.818909 119.781097 L 351.818909 228.669281 C 351.818909 244.732269 338.666138 257.922821 322.565369 257.922821 L 50.212601 257.922821 C 34.111816 257.922821 20.959061 244.732269 20.959061 228.669281 L 20.959061 119.781097 L 27.308655 119.781097 L 179.056702 119.781097 L 131.170074 64.977966 L 131.170074 95.440918 L 27.308655 95.440918 L 20.959061 95.440918 L 20.959061 73.330688 C 20.959061 57.2677 34.111816 44.077148 50.212601 44.077148 Z M 91.711807 213.173218 L 86.231491 203.686615 C 79.99527 214.458282 73.759048 225.267731 67.522827 236.077179 L 78.483459 236.077179 C 82.905518 228.442505 87.289764 220.807861 91.711807 213.173218 Z M 95.793701 220.278748 L 90.313385 229.76535 L 93.979523 236.077179 L 104.940155 236.077179 L 95.793701 220.278748 Z M 59.321259 236.077179 L 72.549606 213.173218 L 67.06929 203.686615 L 48.360626 236.077179 L 59.321259 236.077179 Z M 212.581116 226.930695 L 324.417328 226.930695 L 324.417328 236.077179 L 212.581116 236.077179 L 212.581116 226.930695 Z M 256.310242 203.686615 L 324.417328 203.686615 L 324.417328 212.795288 L 256.310242 212.795288 L 256.310242 203.686615 Z"/>
            <g id="Group">
                <path id="path2" fill="#0a2640" fill-rule="evenodd" stroke="none" d="M 414.785828 130.514954 L 429.14801 130.514954 L 429.14801 83.913391 L 448.423645 130.514954 L 459.308655 130.514954 L 478.508667 83.913391 L 478.508667 130.514954 L 492.87085 130.514954 L 492.87085 58.892883 L 476.656677 58.892883 L 453.86615 112.146484 L 431.113403 58.892883 L 414.785828 58.892883 L 414.785828 130.514954 Z M 548.581116 58.779541 L 507.006287 58.779541 L 507.006287 130.514954 L 548.581116 130.514954 L 548.581116 118.798401 L 521.36853 118.798401 L 521.36853 99.825195 L 545.481873 99.825195 L 545.481873 88.448792 L 521.36853 88.448792 L 521.36853 70.496033 L 548.581116 70.496033 L 548.581116 58.779541 Z M 599.566956 81.154358 C 599.566956 87.61731 595.976379 91.812622 587.963806 91.812622 L 575.944885 91.812622 L 575.944885 70.798401 L 587.963806 70.798401 C 595.976379 70.798401 599.566956 74.804749 599.566956 81.154358 Z M 561.582703 58.892883 L 561.582703 130.514954 L 575.944885 130.514954 L 575.944885 102.584229 L 582.748047 102.584229 L 598.546448 130.514954 L 615.138611 130.514954 L 598.017334 101.488159 C 609.50708 98.388977 614.34491 89.582703 614.34491 80.85199 C 614.34491 68.833069 605.727539 58.892883 588.49292 58.892883 L 561.582703 58.892883 Z M 623.869263 94.609436 C 623.869263 116.039368 639.554321 131.11969 660.190552 131.11969 C 676.102356 131.11969 689.02832 122.691345 693.828369 107.951172 L 677.311829 107.951172 C 673.948059 114.905518 667.787415 118.307068 660.077148 118.307068 C 647.566956 118.307068 638.647217 109.047241 638.647217 94.609436 C 638.647217 80.020447 647.566956 70.911804 660.077148 70.911804 C 667.787415 70.911804 673.948059 74.275574 677.311829 81.154358 L 693.828369 81.154358 C 689.02832 66.489746 676.102356 57.98584 660.190552 57.98584 C 639.554321 57.98584 623.869263 73.141724 623.869263 94.609436 Z M 751.201599 130.514954 L 765.563782 130.514954 L 765.563782 58.892883 L 751.201599 58.892883 L 751.201599 88.335449 L 720.511841 88.335449 L 720.511841 58.892883 L 706.149597 58.892883 L 706.149597 130.514954 L 720.511841 130.514954 L 720.511841 100.051941 L 751.201599 100.051941 L 751.201599 130.514954 Z M 828.341736 130.514954 L 843.535461 130.514954 L 817.759033 58.779541 L 801.053528 58.779541 L 775.314941 130.514954 L 790.395264 130.514954 L 795.081909 116.87085 L 823.61731 116.87085 L 828.341736 130.514954 Z M 819.724426 105.381104 L 799.012573 105.381104 L 809.36853 75.409424 L 819.724426 105.381104 Z M 900.039429 58.779541 L 900.039429 108.026794 L 867.535461 58.779541 L 853.173218 58.779541 L 853.173218 130.514954 L 867.535461 130.514954 L 867.535461 81.381104 L 900.039429 130.514954 L 914.401611 130.514954 L 914.401611 58.779541 L 900.039429 58.779541 Z M 924.795288 70.496033 L 943.844116 70.496033 L 943.844116 130.514954 L 958.206299 130.514954 L 958.206299 70.496033 L 977.292969 70.496033 L 977.292969 58.892883 L 924.795288 58.892883 L 924.795288 70.496033 Z"/>
                <path id="path3" fill="#0a2640" fill-rule="evenodd" stroke="none" d="M 463.428345 243.296051 L 478.584229 243.296051 L 452.845642 171.598419 L 436.140137 171.598419 L 410.36377 243.296051 L 425.444092 243.296051 L 430.168518 229.651978 L 458.703918 229.651978 L 463.428345 243.296051 Z M 454.811035 218.162201 L 434.061401 218.162201 L 444.417297 188.228333 L 454.811035 218.162201 Z M 488.259827 171.711823 L 488.259827 243.296051 L 526.206299 243.296051 L 526.206299 231.919678 L 502.62207 231.919678 L 502.62207 171.711823 L 488.259827 171.711823 Z M 531.535461 183.277161 L 550.62207 183.277161 L 550.62207 243.296051 L 564.984253 243.296051 L 564.984253 183.277161 L 584.070862 183.277161 L 584.070862 171.711823 L 531.535461 171.711823 L 531.535461 183.277161 Z M 636.077148 171.598419 L 594.540161 171.598419 L 594.540161 243.296051 L 636.077148 243.296051 L 636.077148 231.61731 L 608.902344 231.61731 L 608.902344 212.644104 L 633.015747 212.644104 L 633.015747 201.229919 L 608.902344 201.229919 L 608.902344 183.277161 L 636.077148 183.277161 L 636.077148 171.598419 Z M 687.062988 193.973236 C 687.062988 200.436218 683.472412 204.6315 675.459839 204.6315 L 663.47876 204.6315 L 663.47876 183.61731 L 675.459839 183.61731 C 683.472412 183.61731 687.062988 187.585815 687.062988 193.973236 Z M 649.116516 171.711823 L 649.116516 243.296051 L 663.47876 243.296051 L 663.47876 215.403137 L 670.24408 215.403137 L 686.042542 243.296051 L 702.672424 243.296051 L 685.513367 214.269287 C 697.003174 211.207886 701.840942 202.36377 701.840942 193.670868 C 701.840942 181.651978 693.223633 171.711823 675.988953 171.711823 L 649.116516 171.711823 Z M 761.74646 171.598419 L 761.74646 220.845673 L 729.242493 171.598419 L 714.88031 171.598419 L 714.88031 243.296051 L 729.242493 243.296051 L 729.242493 194.162201 L 761.74646 243.296051 L 776.108643 243.296051 L 776.108643 171.598419 L 761.74646 171.598419 Z M 838.924438 243.296051 L 854.080322 243.296051 L 828.341736 171.598419 L 811.63623 171.598419 L 785.859863 243.296051 L 800.940186 243.296051 L 805.664551 229.651978 L 834.200012 229.651978 L 838.924438 243.296051 Z M 830.307068 218.162201 L 809.557495 218.162201 L 819.913391 188.228333 L 830.307068 218.162201 Z M 859.938599 183.277161 L 879.025146 183.277161 L 879.025146 243.296051 L 893.387451 243.296051 L 893.387451 183.277161 L 912.473999 183.277161 L 912.473999 171.711823 L 859.938599 171.711823 L 859.938599 183.277161 Z M 922.943359 243.296051 L 937.305542 243.296051 L 937.305542 171.711823 L 922.943359 171.711823 L 922.943359 243.296051 Z M 980.883423 228.6315 L 961.192139 171.711823 L 945.809448 171.711823 L 972.077148 243.296051 L 989.500732 243.296051 L 1015.768555 171.711823 L 1000.499268 171.711823 L 980.883423 228.6315 Z M 1065.960571 171.598419 L 1024.385864 171.598419 L 1024.385864 243.296051 L 1065.960571 243.296051 L 1065.960571 231.61731 L 1038.748047 231.61731 L 1038.748047 212.644104 L 1062.86145 212.644104 L 1062.86145 201.229919 L 1038.748047 201.229919 L 1038.748047 183.277161 L 1065.960571 183.277161 L 1065.960571 171.598419 Z M 1129.040894 222.584259 C 1129.040894 197.337006 1092.303955 205.349609 1092.303955 190.987396 C 1092.303955 185.12912 1096.536987 182.370087 1102.168457 182.559052 C 1108.329102 182.672455 1112.108643 186.376373 1112.411011 191.1008 L 1128.209473 191.1008 C 1127.302368 178.174805 1117.248779 170.691345 1102.584229 170.691345 C 1087.806274 170.691345 1077.337036 178.477173 1077.337036 191.403137 C 1077.223633 217.3685 1114.149658 208.033081 1114.149658 223.491333 C 1114.149658 228.6315 1110.181152 232.222046 1103.37793 232.222046 C 1096.725952 232.222046 1092.946411 228.442505 1092.530762 222.697632 L 1077.110229 222.697632 C 1077.337036 236.228333 1088.826782 244.01416 1103.71814 244.01416 C 1120.007935 244.01416 1129.040894 233.88504 1129.040894 222.584259 Z"/>
            </g>
        </g>
    </g>
</svg>
